<svg width="104" height="19" viewBox="0 0 104 19" fill="none" xmlns="http://www.w3.org/2000/svg">
<path d="M15.4297 12.873L17.8223 0.226562H21.4722L17.5293 18H13.8428L10.9497 6.11035L8.05664 18H4.37012L0.427246 0.226562H4.07715L6.48193 12.8486L9.41162 0.226562H12.5122L15.4297 12.873ZM28.9185 18.2441C26.9816 18.2441 25.4028 17.6501 24.1821 16.4619C22.9696 15.2738 22.3633 13.6909 22.3633 11.7134V11.3716C22.3633 10.0451 22.6196 8.861 23.1323 7.81934C23.645 6.76953 24.3693 5.96387 25.3052 5.40234C26.2492 4.83268 27.3234 4.54785 28.5278 4.54785C30.3345 4.54785 31.7546 5.11751 32.7881 6.25684C33.8298 7.39616 34.3506 9.01156 34.3506 11.103V12.5435H25.9399C26.0539 13.4061 26.3957 14.0978 26.9653 14.6187C27.5431 15.1395 28.2715 15.3999 29.1504 15.3999C30.5094 15.3999 31.5715 14.9076 32.3364 13.9229L34.0698 15.8638C33.5409 16.6125 32.8247 17.1984 31.9214 17.6216C31.0181 18.0366 30.0171 18.2441 28.9185 18.2441ZM28.5156 7.4043C27.8158 7.4043 27.2461 7.6403 26.8066 8.1123C26.3753 8.58431 26.0986 9.25977 25.9766 10.1387H30.8838V9.85791C30.8675 9.07666 30.6559 8.47445 30.249 8.05127C29.8421 7.61995 29.2643 7.4043 28.5156 7.4043ZM36.5479 16.2666C36.5479 15.7051 36.735 15.2493 37.1094 14.8994C37.4919 14.5495 37.9679 14.3745 38.5376 14.3745C39.1154 14.3745 39.5915 14.5495 39.9658 14.8994C40.3483 15.2493 40.5396 15.7051 40.5396 16.2666C40.5396 16.82 40.3524 17.2716 39.978 17.6216C39.6037 17.9634 39.1235 18.1343 38.5376 18.1343C37.9598 18.1343 37.4837 17.9634 37.1094 17.6216C36.735 17.2716 36.5479 16.82 36.5479 16.2666ZM58.3252 18H54.6631L47.5342 6.30566V18H43.8721V0.226562H47.5342L54.6753 11.9453V0.226562H58.3252V18ZM67.3706 18.2441C65.4338 18.2441 63.855 17.6501 62.6343 16.4619C61.4217 15.2738 60.8154 13.6909 60.8154 11.7134V11.3716C60.8154 10.0451 61.0718 8.861 61.5845 7.81934C62.0972 6.76953 62.8215 5.96387 63.7573 5.40234C64.7013 4.83268 65.7756 4.54785 66.98 4.54785C68.7866 4.54785 70.2067 5.11751 71.2402 6.25684C72.2819 7.39616 72.8027 9.01156 72.8027 11.103V12.5435H64.3921C64.506 13.4061 64.8478 14.0978 65.4175 14.6187C65.9953 15.1395 66.7236 15.3999 67.6025 15.3999C68.9616 15.3999 70.0236 14.9076 70.7886 13.9229L72.522 15.8638C71.993 16.6125 71.2769 17.1984 70.3735 17.6216C69.4702 18.0366 68.4692 18.2441 67.3706 18.2441ZM66.9678 7.4043C66.2679 7.4043 65.6982 7.6403 65.2588 8.1123C64.8275 8.58431 64.5508 9.25977 64.4287 10.1387H69.3359V9.85791C69.3197 9.07666 69.1081 8.47445 68.7012 8.05127C68.2943 7.61995 67.7165 7.4043 66.9678 7.4043ZM86.3037 13.2026L88.0371 4.79199H91.4429L88.0737 18H85.1196L82.6172 9.68701L80.1147 18H77.1729L73.8037 4.79199H77.2095L78.9307 13.1904L81.3477 4.79199H83.8989L86.3037 13.2026ZM100.354 14.3501C100.354 13.9188 100.138 13.5811 99.707 13.3369C99.2839 13.0846 98.6003 12.8608 97.6562 12.6655C94.515 12.0063 92.9443 10.6717 92.9443 8.66162C92.9443 7.48975 93.4285 6.51318 94.397 5.73193C95.3735 4.94255 96.6471 4.54785 98.2178 4.54785C99.8942 4.54785 101.233 4.94255 102.234 5.73193C103.243 6.52132 103.748 7.54671 103.748 8.80811H100.22C100.22 8.30355 100.057 7.88851 99.7314 7.56299C99.4059 7.22933 98.8973 7.0625 98.2056 7.0625C97.6115 7.0625 97.1517 7.19678 96.8262 7.46533C96.5007 7.73389 96.3379 8.07568 96.3379 8.49072C96.3379 8.88135 96.521 9.19873 96.8872 9.44287C97.2616 9.67887 97.8882 9.88639 98.7671 10.0654C99.646 10.2363 100.387 10.4316 100.989 10.6514C102.852 11.335 103.784 12.519 103.784 14.2036C103.784 15.408 103.267 16.3846 102.234 17.1333C101.2 17.8739 99.8657 18.2441 98.23 18.2441C97.1232 18.2441 96.1385 18.0488 95.2759 17.6582C94.4214 17.2594 93.75 16.7183 93.2617 16.0347C92.7734 15.3429 92.5293 14.5983 92.5293 13.8008H95.874C95.9066 14.4274 96.1385 14.9076 96.5698 15.2412C97.0011 15.5749 97.5789 15.7417 98.3032 15.7417C98.9787 15.7417 99.4873 15.6156 99.8291 15.3633C100.179 15.1029 100.354 14.7651 100.354 14.3501Z" fill="white"/>
</svg>
